<svg width="1431" height="1401" viewBox="0 0 1431 1401" fill="none" xmlns="http://www.w3.org/2000/svg">
<path d="M291.988 1299.32C291.988 1299.32 291.997 1299.37 292.002 1299.4C294.152 1310.55 304.051 1318.49 315.372 1318.15C400.404 1315.65 812.067 1239.78 952.395 1050.04L676.182 1059.23C676.182 1059.23 533.229 1221.03 309.558 1272.47C297.432 1275.27 289.682 1287.1 291.988 1299.32Z" fill="url(#paint0_linear_846_518)"/>
<path d="M257.295 1294.74L281.784 1277.77C284.423 1275.93 286.275 1273.19 287.001 1270.06L293.657 1241.01C295.659 1232.28 307.032 1230.09 312.135 1237.45L329.114 1261.94C330.953 1264.58 333.69 1266.43 336.824 1267.15L365.87 1273.81C374.598 1275.81 376.791 1287.18 369.433 1292.29L344.944 1309.27C342.305 1311.11 340.453 1313.84 339.727 1316.98L333.071 1346.02C331.069 1354.75 319.696 1356.94 314.592 1349.59L297.614 1325.1C295.774 1322.46 293.038 1320.61 289.904 1319.88L260.858 1313.22C252.13 1311.22 249.937 1299.85 257.295 1294.74Z" fill="#FF3C8B"/>
<path d="M430.935 1207.94L446.012 1197.49C447.636 1196.35 448.771 1194.68 449.218 1192.75L453.318 1174.86C454.538 1169.51 461.569 1168.16 464.691 1172.67L475.147 1187.75C476.279 1189.37 477.956 1190.51 479.885 1190.95L497.768 1195.05C503.121 1196.27 504.476 1203.31 499.961 1206.43L484.884 1216.88C483.26 1218.02 482.125 1219.69 481.678 1221.62L477.578 1239.5C476.358 1244.86 469.327 1246.21 466.205 1241.7L455.749 1226.62C454.617 1225 452.94 1223.86 451.012 1223.41L433.128 1219.31C427.776 1218.09 426.42 1211.06 430.935 1207.94Z" fill="#8766FF"/>
<path d="M602.469 1274.66C594.049 1276.28 585.907 1270.77 584.283 1262.35C582.659 1253.93 588.169 1245.79 596.59 1244.17C605.01 1242.54 613.152 1248.05 614.776 1256.47C616.399 1264.89 610.889 1273.04 602.469 1274.66Z" fill="#FF513D"/>
<path d="M895.434 851.144C935.574 860.592 1064.13 898.313 1017.55 987.83C941.638 1133.72 752.01 1207.6 699.998 1179.69C647.969 1151.8 651.738 1047.52 696.487 955.595C740.653 864.866 814.423 843.46 895.434 851.144Z" fill="url(#paint1_linear_846_518)"/>
<path d="M670.547 963.862L746.223 969.475C793.434 978.431 824.222 977.775 871.301 973.984C874.987 973.408 881.4 972.187 884.897 971.902C891.245 970.776 895.553 969.135 901.146 967.982C902.388 966.575 941.32 938.353 943.477 937.225L947.433 933.206C950.581 929.706 955.001 925.451 958.374 922.022C957.859 907.947 970.015 898.653 982.281 895.103C989.851 894.995 991.585 895.053 998.381 898.127C1008.54 904.391 1012.97 910.053 1016 920.542C1015.85 919.787 1016.16 920.967 1016.49 922.295C1016.5 922.356 1016.52 922.416 1016.53 922.477C1017.64 923.322 1020.56 919.559 1027.28 934.5L1039.5 973.946L1041.58 982.44C1042.97 988.018 1023.22 1013.22 1019.58 1018.68C997.587 1034.42 974.204 1048.12 954.837 1050.07C933.264 1027.96 938.387 923.53 892.133 988.113C874.313 1013 905.576 1061.17 877.488 1073.84C854.734 1084.1 813.865 1076.69 819.092 1110.29C813.392 1115.47 798.321 1142.7 790.768 1144.8L790.748 1144.81C783.244 1146.85 778.294 1148.2 770.28 1147.88C758.846 1147.51 748.065 1142.49 740.443 1133.98C730.362 1122.94 727.088 1110.08 727.855 1095.5C716.936 1093.95 708.155 1092.6 697.654 1089.05C695.054 1088.17 695.082 1088.35 693.317 1089.38L692.892 1092.42C702.997 1096.46 702.955 1104.46 695.243 1111.29C695.006 1111.4 689.876 1107.37 685.122 1111.16C682.579 1110.75 681.587 1109.6 678.067 1109.22C674.061 1100.86 674.44 1095.72 681.513 1089.59C682.564 1083.07 662.612 1082.2 659.667 1077.11C659.281 1021.91 664.113 985.337 670.547 963.862Z" fill="#C6A067"/>
<path d="M996.517 970.916C1000.1 970.051 1001.02 968.472 1004.22 967.039C1004.17 970.45 1014.66 952.761 1015.83 955.94L1016.24 958.415L1017.31 960.385C1016.65 961.782 1014.17 962.386 1017.04 961.688L1017.07 961.841C1017.21 961.718 1017.38 961.618 1017.6 961.551L1017.19 962.314L1017.07 961.841C1016.23 962.591 1016.66 964.155 1015.34 963.741C1015.4 964.182 1018.94 963.38 1019.12 963.731L1018.58 961.536C1018.56 961.464 1018.54 961.393 1018.53 961.323L1018.58 961.536C1019.58 965.421 1023.82 972.037 1025.88 975.957C1027.27 982.233 1032.75 990.915 1026.36 995.27C1018.3 1000.76 993.252 1014.11 984.16 1013.4C977.447 1009.33 972.298 984.819 969.997 976.243L967.897 968.008L967.858 967.435C969.893 964.427 986.223 972.953 991.969 968.07L996.517 970.916Z" fill="#A7744F"/>
<path d="M917.127 967.054C917.622 966.115 926.56 956.483 928.116 954.536C932.112 971.106 936.232 987.645 940.473 1004.15C944.467 1019.74 947.69 1048.74 970.41 1042.43C987.906 1037.57 1036.23 999.256 1041.26 981.232C1042.66 986.823 1040.22 998.766 1036.6 1004.23C1026.01 1020.2 977.21 1059.7 957.985 1055.72C953.183 1054.35 947.212 1052.24 943.326 1048.57C929.534 1035.54 926.168 978.685 917.127 967.054Z" fill="#A7744F"/>
<path d="M878.469 1007.53C882.069 1003.84 885.925 1000.51 889.78 997.095C893.125 1013.29 896.167 1029.54 898.907 1045.85C899.563 1049.86 899.531 1058.62 900.305 1061.58C897.12 1070.82 892.586 1077.78 883.374 1081.59C870.226 1087.02 836.378 1093.28 821.961 1094C821.501 1090.35 820.249 1084.04 818.696 1080.66C879.883 1068.75 898.081 1082.32 878.469 1007.53Z" fill="#A7744F"/>
<path d="M798.282 1060.45C806.685 1055.09 815.455 1051.23 823.588 1046.2C833.31 1040.19 843.265 1032.78 852.973 1026.42C854.582 1036.3 856.651 1044.76 855.035 1054.68C845.125 1056.67 836.973 1058.22 826.911 1059.5C821.707 1060.16 806.14 1061.49 801.958 1062.75C800.605 1062.32 799.494 1061.33 798.282 1060.45Z" fill="#A7744F"/>
<path d="M768.453 1056.74C771.294 1055.47 774.274 1054.65 777.255 1053.75L778.25 1054.88C783.547 1055.06 794.664 1056.18 798.845 1059.39C800.069 1060.24 801.189 1061.21 802.56 1061.62C811.026 1067.56 813.655 1070.8 819.032 1079.72C820.602 1083.09 822.136 1088.31 822.571 1091.95C824.332 1106.56 821.832 1121.61 809.927 1131.89C804.134 1137.08 798.786 1140.56 791.133 1142.68C783.518 1144.76 778.501 1146.13 770.386 1145.85C758.818 1145.54 747.934 1140.59 740.262 1132.16C730.116 1121.22 726.866 1108.43 727.713 1093.92C728.77 1090.1 729.924 1086.3 731.17 1082.53C732.624 1080.54 732.752 1080.04 733.676 1077.72C739.035 1069.97 741.329 1068.05 748.892 1062.54C752.94 1059.59 763.496 1057.58 768.453 1056.74Z" fill="#DCA94F"/>
<path d="M769.269 1056.41C772.049 1055.15 774.97 1054.35 777.89 1053.46L778.873 1054.6C784.072 1054.81 794.987 1055.99 799.108 1059.22C800.313 1060.08 801.418 1061.05 802.766 1061.47C811.106 1067.46 813.704 1070.71 819.029 1079.66C820.589 1083.03 822.122 1088.26 822.569 1091.9C824.377 1106.52 822.006 1121.54 810.379 1131.76C804.722 1136.92 799.493 1140.36 791.994 1142.45C794.239 1140.56 796.681 1138.53 798.807 1136.53C807.891 1128.05 813.146 1116.24 813.367 1103.82C813.733 1078.67 795.077 1056.54 769.269 1056.41Z" fill="#8D5B3B"/>
<path d="M760.22 1071.66C778.404 1062.19 798.361 1081.1 802.307 1098.54C803.27 1114.85 796.436 1135.32 777.087 1136.3L776.325 1136.33C775.577 1136.99 774.515 1137.79 773.491 1137.88C744.833 1140.53 727.64 1105.04 743.494 1082.77C747.792 1076.73 752.999 1073.03 760.22 1071.66Z" fill="#C9F7EA"/>
<path d="M760.466 1071.59C778.517 1062.22 798.278 1080.83 802.163 1098.03C800.302 1096.69 793.596 1096.72 791.749 1097.27C785.305 1099.18 748.563 1096.38 744.73 1098.65C744.817 1097.95 744.912 1097.26 745.015 1096.56C746.724 1085.13 751.235 1078.39 760.466 1071.59Z" fill="#B6D8D1"/>
<path d="M772.794 1077.28C781.105 1074.94 791.013 1079.24 788.599 1088.94C781.13 1090.82 768.902 1086.34 772.794 1077.28Z" fill="#FEFEFE"/>
<path d="M775.894 1136.45C775.16 1137.11 774.117 1137.9 773.107 1137.99C744.851 1140.49 727.697 1104.74 743.215 1082.45C747.421 1076.41 752.538 1072.72 759.654 1071.38C750.521 1078.25 746.084 1085.08 744.467 1096.72C744.369 1097.42 744.28 1098.13 744.198 1098.84C746.261 1118.63 755.169 1133 775.894 1136.45Z" fill="#8D5B3B"/>
<path d="M905.428 946.295C906.667 944.897 941.633 938.545 943.782 937.423C939.079 943.719 934.244 949.917 929.281 956.012C927.721 957.944 918.759 967.508 918.262 968.439C909.446 978.017 900.085 987.993 890.526 996.841C886.569 1000.27 882.611 1003.6 878.912 1007.31C871.053 1013.76 862.097 1021.28 853.672 1026.83C843.927 1033.12 833.93 1040.45 824.172 1046.4C816.01 1051.38 807.217 1055.22 798.782 1060.53C794.656 1057.32 783.712 1056.16 778.499 1055.96L777.516 1054.83L785.057 1051.78C797.032 1046.55 805.792 1041.83 817.019 1035.08C818.898 1034.42 827.322 1028.87 829.694 1027.47C833.501 1025.07 836.81 1022.8 840.474 1020.22C844.173 1018.47 847.712 1015.6 851.024 1013.13C859.597 1006.56 867.939 999.695 876.036 992.55C875.119 985.698 873.734 980.604 871.877 973.97C875.548 973.394 881.934 972.176 885.416 971.889C891.739 970.765 899.858 947.445 905.428 946.295Z" fill="#693C26"/>
<path d="M689.154 1061.84C705.222 1068.25 717.537 1068.75 734.528 1066.43C737.356 1066.04 745.825 1064.59 748.183 1064.62C740.757 1070.08 738.504 1071.99 733.256 1079.68C732.354 1081.99 732.229 1082.48 730.804 1084.47C729.59 1088.21 728.468 1091.99 727.439 1095.79C716.567 1094.27 707.823 1092.94 697.369 1089.44C694.781 1088.57 694.809 1088.75 693.049 1089.78L692.621 1092.79C702.68 1096.78 702.626 1104.7 694.934 1111.48C694.698 1111.59 689.594 1107.61 684.853 1111.37C682.321 1110.97 681.335 1109.83 677.83 1109.46C673.852 1101.18 674.237 1096.08 681.292 1090C682.348 1083.54 685.267 1073.04 682.342 1067.99L689.154 1061.84Z" fill="#693C26"/>
<path d="M696.026 1075.96C700.777 1077.27 707.402 1078.36 712.29 1079.17C713.402 1083.47 727.289 1084.15 731.153 1084.19C730.027 1088.09 728.991 1092.02 728.048 1095.98C717.311 1094.19 708.674 1092.64 698.312 1088.78C695.747 1087.82 695.778 1088.01 694.064 1089.05C693.87 1087.22 695.583 1078.44 696.026 1075.96Z" fill="#A7744F"/>
<path d="M677.807 1109.36C673.792 1100.95 674.158 1095.79 681.198 1089.64C681.277 1092.65 680.874 1097.14 682.827 1099.16C686.634 1100.6 688.546 1101.48 692.696 1101.35C692.348 1097.8 692.073 1096.06 692.553 1092.51C702.639 1096.6 702.616 1104.64 694.941 1111.48C694.704 1111.59 689.579 1107.53 684.846 1111.33C682.31 1110.91 681.317 1109.75 677.807 1109.36Z" fill="#C6A067"/>
<path d="M693.372 1100.58L693.951 1100.67L694.284 1101.53C693.445 1104.06 693.36 1104.46 691.084 1106.12C685.23 1108.16 679.161 1104.05 682.871 1098.79C686.902 1100.06 688.923 1100.84 693.372 1100.58Z" fill="#FCE5C4"/>
<path d="M713.332 1077.61C720.817 1077.8 728.112 1078.09 735.588 1077.03C734.628 1079.34 734.493 1079.83 732.996 1081.81C728.938 1081.89 714.371 1081.67 713.332 1077.61Z" fill="#C6A067"/>
<path d="M688.234 1192.29C665.237 1192.45 646.143 1186.05 640.348 1161.47C637.778 1150.28 639.812 1138.51 646.007 1128.7C655.436 1113.84 664.467 1113.37 679.141 1109.88C682.709 1110.25 683.71 1111.39 686.287 1111.79C691.126 1107.98 696.311 1111.98 696.552 1111.88C736.831 1120.65 735.853 1189.72 688.234 1192.29Z" fill="#DCA94F"/>
<path d="M685.596 1111.5C690.543 1107.65 695.814 1111.66 696.06 1111.55C737.09 1120.23 735.834 1189.78 687.28 1192.55C697.953 1185.55 707.517 1180.51 711.979 1167.4C720.115 1143.51 710.325 1120.08 685.596 1111.5Z" fill="#A7744F"/>
<path d="M661.732 1121.04C668.364 1118.68 673.704 1116.59 680.963 1117.85C698.378 1120.87 708.974 1139.3 705.915 1156.47C704.09 1166.72 699.834 1173.35 691.677 1179.24C652.684 1195.51 632.997 1144.08 661.732 1121.04Z" fill="#A7744F"/>
<path d="M669.692 1124.88C700.467 1114.5 716.905 1155.96 687.809 1174.16C656.551 1185.57 640.697 1142.7 669.692 1124.88Z" fill="#FCE5C4"/>
<path d="M673.679 1144.54C676.373 1138.2 678.154 1133.75 681.844 1127.89C682.49 1134.05 683.035 1140.11 684.155 1146.2L684.15 1147.1C689.647 1150.81 693.56 1152.6 699.502 1155.46C695.784 1155.85 689.131 1156.35 685.756 1157.27C684.791 1157.64 682.941 1158.4 682.077 1158.57C680.21 1161.51 675.906 1169.89 674.188 1171.62C673.314 1170.66 673.513 1171.1 673.201 1169.9C670.826 1164.59 671.953 1160.55 669.919 1153.8L655.766 1147.79C659.277 1147.45 671.447 1146.55 673.679 1144.54Z" fill="#F3D0A4"/>
<path d="M674.107 1144.62C676.804 1138.2 678.585 1133.7 682.284 1127.77C682.947 1134.01 683.509 1140.16 684.649 1146.33C683.205 1146.32 678.833 1145.53 677.177 1145.27L674.107 1144.62Z" fill="#D60533"/>
<path d="M686.067 1156.76C685.185 1156.65 684.572 1156.44 683.699 1156.2C682.996 1153.13 683.74 1149.49 684.376 1146.41C689.766 1150.25 693.592 1152.12 699.403 1155.09C695.795 1155.44 689.335 1155.87 686.067 1156.76Z" fill="#A7744F"/>
<path d="M674.18 1155.61C677.571 1156.05 680.588 1156.42 683.947 1157.11C681.967 1160.29 677.41 1169.36 675.584 1171.24C674.644 1170.19 674.859 1170.67 674.519 1169.36C674.129 1164.27 674.099 1160.71 674.18 1155.61Z" fill="#8D5B3B"/>
<path d="M655.783 1147.86C659.402 1147.48 671.944 1146.41 674.274 1144.4L677.403 1144.97C671.32 1147.25 671.765 1147.47 670.254 1153.49L655.783 1147.86Z" fill="#A7744F"/>
<path d="M507.078 985.587C509.406 1025.19 557.323 1031.84 600.48 1029.75C621.322 1028.75 637.219 1024.9 659.57 1018.6C697.798 1007.86 693.867 980.348 681.386 970.532C670.953 962.317 653.052 962.449 642.288 961.549C615.416 959.295 615.531 959.161 594.559 954.062C579.352 950.361 563.432 943.808 547.438 943.648C518.231 943.346 505.936 965.582 507.105 985.61L507.078 985.587Z" fill="#FFB3B3"/>
<path d="M985.088 913.26C988.682 913.409 990.793 914.161 993.479 916.777C996.647 919.916 998.409 924.222 998.356 928.69C998.344 933.778 997.086 936.273 993.718 939.708C980.005 942.682 974.333 920.192 985.088 913.26Z" fill="#C6A067"/>
<path d="M1000.9 952.094C1004.5 951.224 1006.74 949.142 1009.65 950.987C1012.56 952.833 1014.64 952.713 1015.79 955.852L1016.19 958.298L1017.26 960.242C1019.9 960.954 1019.96 960.492 1022.84 959.79L1023.02 960.302L1022.33 962.414C1020.78 962.892 1020.35 962.609 1018.82 962.139C1018.87 962.575 1018.89 963.197 1019.06 963.543C1019.11 973.128 999.906 983.292 990.739 982.716C980.44 982.071 977.655 982.834 969.731 976.125L967.66 967.989L967.623 967.423C969.677 964.439 990.527 959.103 996.312 954.249L1000.9 952.094Z" fill="#A7744F"/>
<path d="M967.548 967.601C974.597 973.261 971.321 976.195 982.881 979.107C994.66 982.075 1016.5 971.987 1015.63 958.771L1016.1 957.974L1017.18 959.958C1019.82 960.695 1019.88 960.226 1022.76 959.525L1022.95 960.047L1022.26 962.193C1020.71 962.672 1020.28 962.382 1018.74 961.896C1018.8 962.341 1018.82 962.974 1019 963.327C1019.1 973.082 999.911 983.332 990.73 982.702C980.414 981.994 977.628 982.757 969.661 975.891L967.548 967.601Z" fill="#8D5B3B"/>
<path d="M995.744 970.026C997.524 968.53 1000.41 968.11 1002.18 969.09C1003.95 970.069 1003.92 972.075 1002.13 973.561C1000.34 975.039 997.48 975.446 995.722 974.473C993.965 973.499 993.974 971.511 995.744 970.026Z" fill="#8D5B3B"/>
<path d="M948.672 931.944C951.45 928.385 955.376 924.081 958.364 920.605C958.93 927.839 959.4 929.169 960.65 935.987C959.61 934.545 959.64 932.483 958.62 930.441C954.825 930.292 953.021 932.53 948.672 931.944Z" fill="#C88C67"/>
<path d="M1135.55 814.819C1139.91 817.237 1145.17 819.413 1149.76 821.742C1167.77 830.893 1174.59 839.913 1185.95 855.396C1182.93 871.444 1177.22 879.397 1163.19 888.818C1159.48 891.276 1155.73 893.673 1151.94 896.004C1134.17 905.589 1120.28 911.566 1100.49 916.429L1091.49 918.679C1070.65 922.25 1046.48 925.82 1026.99 915.177C1018.07 910.294 1011.48 902.107 1008.72 892.452C1001.25 866.854 1020.96 848.251 1043.71 840.599C1056.77 836.209 1069.59 832.836 1082.89 829.234L1135.55 814.819Z" fill="#FEB2B0"/>
<path d="M1156.62 649.675C1157.34 645.353 1158.61 643.378 1162.24 640.744C1173.52 632.552 1199.49 635.159 1212.96 637.752C1235.77 642.143 1266.47 653.587 1280.43 673.275C1282.45 676.129 1284.2 680.526 1283.28 683.965C1282.94 685.269 1281.9 688.128 1281 689.086C1272.4 706.497 1218.88 796.133 1220.13 811.271C1220.81 815.016 1221.04 813.698 1219.81 816.758C1218.65 817.475 1217.37 818.328 1216.17 818.937L1215.89 822.206C1215.59 824.683 1215.71 826.162 1214.26 828.025C1197.92 830.869 1180.05 825.205 1164.88 819.29C1160.39 826.45 1153.26 832.206 1144.42 831.245C1138.84 830.641 1133.31 826.29 1134.84 820.111C1136.17 814.795 1141.19 812.448 1145.47 809.935C1141.39 807.219 1137.96 804.402 1134.15 801.338C1133.01 799.894 1132.98 799.424 1132.38 797.696C1133.45 795.01 1133.24 795.784 1135.93 793.783L1136.72 793.356C1136.09 792.627 1135.06 791.025 1134.47 790.17C1134.87 787.181 1134.79 788.096 1137.63 785.48L1136.69 782.574C1139.44 765.698 1144.09 747.82 1147.12 729.738C1151.78 701.897 1153.12 676.913 1156.62 649.675Z" fill="#FCE5C4"/>
<path d="M1156.28 649.334C1157.02 645.142 1158.3 643.224 1161.94 640.66C1173.27 632.685 1199.29 635.133 1212.78 637.605C1235.63 641.79 1266.37 652.789 1280.3 671.83C1282.32 674.59 1284.05 678.847 1283.13 682.183C1282.77 683.448 1281.72 686.222 1280.82 687.153C1277.11 687.357 1272.27 689.325 1268.17 690.301C1257.69 692.794 1250.46 693.19 1239.83 693.215C1224 692.227 1202.58 688.391 1189.21 679.907C1173.77 673.138 1163.81 664.072 1156.28 649.334Z" fill="#EDBF97"/>
<path d="M1196.47 656.562C1211.96 670.906 1225.29 675.153 1245.4 676.375C1244.16 679.528 1239.18 691.518 1238.93 694.076C1223.41 692.934 1202.38 688.763 1189.21 679.759C1192.1 676.299 1193.75 663.395 1196.47 656.562Z" fill="#F3D0A4"/>
<path d="M1155.97 797.969C1152.89 789.738 1147.07 774.75 1151.33 767.109C1158.29 754.65 1171.26 766.47 1172.75 776.976C1174.36 788.346 1172.92 793.691 1169.15 803.765C1189.85 810.975 1197.77 813.075 1219.87 811.023C1220.55 814.83 1220.78 813.491 1219.56 816.599C1218.41 817.326 1217.13 818.191 1215.93 818.808L1215.66 822.13C1215.36 824.648 1215.48 826.151 1214.04 828.043C1197.75 830.905 1179.92 825.115 1164.78 819.075C1160.32 826.345 1153.22 832.184 1144.39 831.191C1138.83 830.567 1133.3 826.135 1134.82 819.856C1136.13 814.455 1141.14 812.078 1145.4 809.531C1141.33 806.763 1137.9 803.893 1134.1 800.772C1132.96 799.302 1132.93 798.824 1132.33 797.066C1133.39 794.339 1133.18 795.124 1135.86 793.095L1136.64 792.662C1136.02 791.92 1134.99 790.29 1134.4 789.42C1134.79 786.383 1134.71 787.312 1137.54 784.658C1143.69 790.206 1148.59 794.06 1155.97 797.969Z" fill="#693C26"/>
<path d="M1216.65 820.432C1202.36 821.163 1178.81 819.973 1167.35 810.225C1169.32 808.419 1181.04 812.539 1184.11 813.503C1195.1 816.96 1205.68 816.431 1216.94 816.997L1216.65 820.432Z" fill="url(#paint2_linear_846_518)"/>
<path d="M1133.39 800.542C1137.23 803.539 1141.64 806.434 1145.76 809.089C1141.43 811.569 1136.76 814.113 1135.41 819.336C1133.84 825.407 1137.84 830.521 1143.48 831.099C1152.43 832.018 1159.66 826.346 1164.22 819.303C1179.56 825.068 1197.63 830.579 1214.17 827.741L1213.78 828.523C1205.81 844.714 1196.83 902.959 1194.7 922.3C1193.48 933.413 1192.78 946.751 1189.5 957.607C1188.26 961.731 1186.33 964.479 1181.89 965.694C1159.11 971.935 1133.08 965.956 1112.25 956.102C1100.23 950.416 1078.71 936.944 1085.24 921.069C1090.1 909.231 1096.43 897.822 1101.44 885.973C1106.73 876.597 1110.38 863.953 1114.67 853.939C1121.88 837.071 1126.57 817.435 1133.39 800.542Z" fill="#FCE5C4"/>
<path d="M1203.42 870.45L1202.16 867.655C1188.78 861.687 1177.56 854.534 1173.71 839.133C1171.34 829.491 1172.72 819.456 1177.56 811.231C1189.48 790.942 1213.32 786.739 1233.32 799.866C1234.63 800.819 1237.28 802.605 1238.29 803.677C1251.7 825.284 1252.31 845.285 1229.92 858.634C1221.49 863.659 1212.07 866.142 1203.42 870.45Z" fill="#FEB3B3"/>
<path d="M871.893 973.681C875.757 973.04 882.485 971.715 886.145 971.362C886.653 973.678 889.136 977.795 890.402 979.543C886.439 984.37 879.967 989.107 875.643 992.914C874.823 986.22 873.705 980.143 871.893 973.681Z" fill="#A7744F"/>
<path d="M886.404 972.405C892.185 971.415 896.094 969.898 901.185 968.871C897.146 973.109 893.208 977.303 888.956 981.31C887.788 979.532 886.928 974.72 886.404 972.405Z" fill="#FC3A87"/>
<path d="M781.02 1014.81C780.778 1012.42 780.357 1012.43 781.351 1010.88C789.272 1009.44 846.933 1001.28 849.49 1002.4L852.206 1012.02C848.891 1014.53 845.35 1017.44 841.642 1019.22C837.778 1021.98 834.661 1024.14 830.848 1026.57C828.472 1027.99 820.036 1033.62 818.151 1034.29C806.905 1041.13 798.127 1045.92 786.121 1051.2C784.503 1041.2 781.57 1024.59 781.02 1014.81Z" fill="#A7744F"/>
<path d="M780.682 1014.27C782.511 1015.97 782.939 1016.24 783.397 1018.7C782.098 1029.72 800.63 1032.94 807.588 1033.87C810.466 1034.25 814.084 1033.68 816.771 1034.53C806.024 1041.3 797.628 1046.02 786.127 1051.2C784.423 1041.05 781.354 1024.18 780.682 1014.27Z" fill="#A7744F"/>
<path d="M781.604 1020.42C790.554 1031.62 808.932 1032.88 822.104 1030.29C825.359 1029.66 826.858 1029.13 832.304 1025.89C829.807 1027.38 819.697 1033.9 817.717 1034.6C814.077 1035.49 810.796 1035.95 807.671 1035.61C800.112 1034.77 779.995 1031.78 781.604 1020.42Z" fill="#8D5B3B"/>
<path d="M849.323 1001.81L852.285 1012.32C848.928 1014.98 845.346 1018.09 841.574 1019.95C847.031 1012.53 846.555 1010.66 849.323 1001.81Z" fill="#8D5B3B"/>
<path d="M813.299 1021.55C815.325 1020.21 818.042 1020.66 819.524 1022.59C821.008 1024.51 820.753 1027.25 818.941 1028.87C817.647 1030.02 815.816 1030.36 814.199 1029.74C812.58 1029.12 811.442 1027.64 811.254 1025.92C811.064 1024.2 811.854 1022.51 813.299 1021.55Z" fill="#8D5B3B"/>
<path d="M736.649 965.529L747.31 968.215C749.62 983.887 749.067 994.845 739.707 1008.55C737.252 1012.14 730.265 1018.44 726.217 1019.63C728.435 1015.65 730.584 1011.62 732.666 1007.56C740.486 992.081 741.696 981.937 736.649 965.529Z" fill="#A7744F"/>
<path d="M689.738 934.737L609.366 955.854C605.719 956.823 604.393 961.288 606.948 964.058C623.939 982.535 682.202 1035.18 783.56 1019.22C873.73 1005.04 915.328 958.813 925.242 945.613C926.676 943.694 929.279 943.083 931.418 944.155C956.878 956.883 989.792 953.182 1013.56 933.765C1031.66 919.002 1029.66 895.367 1028.19 886.599C1027.84 884.549 1026.27 882.953 1024.23 882.525L972.985 872.244C972.307 872.101 971.592 872.122 970.907 872.264L689.714 934.743L689.738 934.737Z" fill="#E20A81"/>
<path d="M1133.52 682.829C1131.86 703.809 1123.28 816.491 1015.19 894.638C828.706 1029.45 599.761 962.936 528.168 901.952C423.482 812.797 386.152 651.393 418.26 475.48C443.016 339.863 520.381 419.983 482.925 396.377C479.217 394.044 714.923 487.52 537.685 352.127C561.594 346.101 536.478 304.068 623.073 301.668C852.032 295.346 970.918 306.634 1078.32 474.206C1117.78 535.793 1139.11 612.719 1133.54 682.823L1133.52 682.829Z" fill="#FF3C8B"/>
<path d="M1133.52 682.829C1131.86 703.809 1123.28 816.491 1015.19 894.638C828.706 1029.45 599.761 962.936 528.168 901.952C423.482 812.797 386.152 651.393 418.26 475.48C443.016 339.863 520.381 419.983 482.925 396.377C479.217 394.044 714.923 487.52 537.685 352.127C561.594 346.101 536.478 304.068 623.073 301.668C852.032 295.346 970.918 306.634 1078.32 474.206C1117.78 535.793 1139.11 612.719 1133.54 682.823L1133.52 682.829Z" fill="#FF3C8B"/>
<path d="M820.554 436.122C878.429 420.814 1046.79 415.602 1098.35 594.947C1115.27 653.819 1115.36 801.337 971.9 878.925C905.331 914.953 812.686 923.847 749.962 898.292C699.41 877.709 653.077 839.043 626.656 780.104C602.062 725.271 599.319 655.784 628.829 589.573C649.255 543.74 689.992 470.643 820.548 436.098L820.554 436.122Z" fill="#FFB3B3"/>
<path d="M901.356 615.395C936.096 676.697 996.256 708.176 1035.34 685.966C1073.97 663.996 1077.38 597.686 1043.33 537.605C1009.27 477.524 950.082 445.499 910.767 466.247C870.997 487.236 866.616 554.092 901.356 615.395Z" fill="white"/>
<path d="M1018.79 557.467C1044.48 602.466 1041.84 652.178 1012.83 668.478C983.763 684.845 939.192 661.487 913.397 616.257C887.578 571.032 890.398 521.248 919.601 505.107C948.737 489.007 993.101 512.467 1018.81 557.461L1018.79 557.467Z" fill="#3A6EFF"/>
<path d="M1000.02 521.088C1006.98 533.351 1004.12 548.041 993.649 553.919C983.179 559.796 969.003 554.621 962.044 542.358C955.085 530.095 957.943 515.381 968.467 509.515C978.967 503.656 993.094 508.843 1000.05 521.106L1000.02 521.088Z" fill="white"/>
<path d="M957.343 590.932L971.272 596.887C972.13 597.243 973.1 597.211 973.89 596.761L986.845 589.582C989.154 588.297 991.857 590.413 991.166 592.949L986.706 609.418C986.52 610.132 986.607 610.908 986.949 611.57L994.959 626.868C996.255 629.329 993.708 632.06 991.151 630.962L977.246 625.001C976.387 624.645 975.424 624.701 974.628 625.127L961.655 632.337C959.346 633.621 956.642 631.505 957.334 628.97L961.812 612.47C961.997 611.756 961.911 610.98 961.569 610.318L953.553 594.996C952.251 592.511 954.804 589.804 957.385 590.895L957.343 590.932Z" fill="white"/>
<path d="M878.53 621.772C914.91 685.785 905.044 759.975 856.278 787.612C807.335 815.369 737.756 785.654 701.1 721.142C664.444 656.63 674.784 582.171 724.033 554.93C773.051 527.797 842.156 557.783 878.506 621.778L878.53 621.772Z" fill="white"/>
<path d="M873.098 639.276C898.96 684.567 893.591 736.131 861.015 754.461C828.328 772.868 780.703 750.901 754.679 705.366C728.679 659.826 734.255 608.159 767.079 590.001C799.788 571.896 847.231 593.96 873.098 639.276Z" fill="#3A6EFF"/>
<path d="M854.344 602.558C861.345 614.888 857.485 630.234 845.702 636.844C833.92 643.454 818.663 638.8 811.656 626.446C804.649 614.092 808.534 598.741 820.322 592.155C832.111 585.569 847.325 590.259 854.326 602.589L854.344 602.558Z" fill="white"/>
<path d="M803.506 676.761L819.102 682.488C819.979 682.814 820.937 682.734 821.751 682.278L836.292 674.222C838.807 672.835 841.728 675.207 840.847 677.917L835.326 694.569C835.061 695.38 835.117 696.24 835.507 696.994L843.576 712.534C844.896 715.092 842.355 717.951 839.639 716.943L824.049 711.24C823.172 710.914 822.214 710.994 821.4 711.45L806.841 719.536C804.307 720.953 801.381 718.557 802.28 715.817L807.819 699.135C808.084 698.324 808.027 697.463 807.638 696.71L799.569 681.169C798.249 678.612 800.796 675.777 803.506 676.761Z" fill="white"/>
<path d="M911.16 736.62L968.59 703.29C974.041 700.131 981.026 702.718 983.079 708.696C1000.25 758.608 1009.76 828.239 977.502 842.607C944.338 857.377 915.953 785.674 906.498 747.738C905.435 743.394 907.313 738.872 911.166 736.644L911.16 736.62Z" fill="#F22785"/>
<mask id="mask0_846_518" style="mask-type:luminance" maskUnits="userSpaceOnUse" x="906" y="701" width="93" height="144">
<path d="M911.156 736.618L968.586 703.288C974.037 700.129 981.022 702.716 983.075 708.694C1000.24 758.606 1009.76 828.237 977.499 842.605C944.334 857.375 915.949 785.672 906.494 747.736C905.432 743.392 907.309 738.87 911.162 736.642L911.156 736.618Z" fill="white"/>
</mask>
<g mask="url(#mask0_846_518)">
<path d="M962.306 870.908C931.2 878.513 900.025 860.31 892.675 830.249C885.325 800.188 904.583 769.654 935.689 762.048C966.795 754.442 997.97 772.645 1005.32 802.706C1012.67 832.767 993.412 863.302 962.306 870.908Z" fill="#FF3C8B"/>
</g>
<path d="M439.705 373.324C445.716 365.897 486.933 323.089 524.495 301.212C573.059 272.928 650.566 256.809 662.095 259.065C673.622 261.322 687.027 261.574 698.892 262.924C721.428 265.616 743.556 270.979 764.809 278.899C726.907 301.608 685.807 329.138 651.815 357.214C649.23 359.272 646.622 361.301 643.99 363.298C613.408 389.162 588.256 411.144 559.56 439.546C524.603 474.147 495.523 508.433 463.592 545.41C462.942 546.505 462.456 547.265 461.92 548.434L457.33 547.938C448.853 550.531 431.417 575.051 424.098 582.366C417.511 588.948 414.735 593.609 419.755 601.783C411.887 609.905 403.451 626.184 396.52 633.98C376.779 578.01 376.247 517.024 395.005 460.617C398.63 449.856 403.386 439.349 408.107 429.022C410.358 424.099 436.247 377.596 439.705 373.324Z" fill="#A7744F"/>
<path d="M470.375 342.776C491.009 324.17 483.774 321.662 527.762 300.723C571.75 279.784 549.048 283.535 661.633 258.937C673.154 261.184 686.552 261.427 698.411 262.769C720.935 265.443 743.05 270.786 764.288 278.684C766.795 277.544 769.275 276.347 771.726 275.092C779.119 276.844 785.083 280.198 792.199 282.646C802.477 288.744 813.497 294.035 822.094 302.558C824.934 301.744 839.341 297.045 840.707 295.408C848.495 294.095 862.53 288.626 870.819 286.281C894.054 279.709 934.945 268.225 958.007 268.214C971.624 266.934 974.187 268.219 980.623 280.686C982.697 295.399 958.453 331.962 948.698 343.912C935.192 336.627 907.723 326.047 893.066 321.049C886.652 324.171 867.257 337.937 861.018 342.611C853.017 348.607 836.355 359.897 829.146 366.357L812.238 379.167C782.96 401.803 754.309 425.238 726.316 449.443C714.432 459.657 700.628 472.797 688.782 482.386C684.702 486.167 680.211 490.503 676.037 494.083C656.518 513.052 636.521 531.19 617.134 550.439C559.845 606.648 505.982 666.233 455.837 728.872C452.675 732.844 435.43 753.76 435.051 757.252C440.805 776.367 445.624 790.57 453.205 809.11C440.118 817.331 426.706 825.776 412.298 831.543C404.028 834.853 398.317 836.352 390.194 832.907C383.685 828.214 380.907 825.311 381.325 816.856C381.64 792.737 397.153 743.232 405.458 719.589C408.015 712.312 415.019 698.165 416.488 692.076C407.504 681.499 395.598 655.888 390.951 642.737C392.139 639.68 394.223 636.473 395.937 633.628C376.242 577.731 375.748 516.809 394.534 460.45C398.165 449.698 402.924 439.199 407.651 428.88C409.903 423.961 412.194 419.863 413.186 414.462L418.01 406.714C453.827 353.351 449.903 361.237 470.375 342.776Z" fill="#A7744F"/>
<path d="M470.375 342.776C491.009 324.17 483.774 321.662 527.762 300.723C571.75 279.784 549.048 283.535 661.633 258.937C673.154 261.184 686.552 261.427 698.411 262.769C720.935 265.443 743.05 270.786 764.288 278.684C766.795 277.544 769.275 276.347 771.726 275.092C779.119 276.844 785.083 280.198 792.199 282.646C802.477 288.744 813.497 294.035 822.094 302.558C824.934 301.744 839.341 297.045 840.707 295.408C848.495 294.095 862.53 288.626 870.819 286.281C894.054 279.709 934.945 268.225 958.007 268.214C971.624 266.934 974.187 268.219 980.623 280.686C982.697 295.399 958.453 331.962 948.698 343.912C935.192 336.627 907.723 326.047 893.066 321.049C886.652 324.171 867.257 337.937 861.018 342.611C853.017 348.607 836.355 359.897 829.146 366.357L812.238 379.167C782.96 401.803 754.309 425.238 726.316 449.443C714.432 459.657 700.628 472.797 688.782 482.386C684.702 486.167 680.211 490.503 676.037 494.083C656.518 513.052 636.521 531.19 617.134 550.439C559.845 606.648 505.982 666.233 455.837 728.872C452.675 732.844 435.43 753.76 435.051 757.252C440.805 776.367 445.624 790.57 453.205 809.11C440.118 817.331 426.706 825.776 412.298 831.543C404.028 834.853 398.317 836.352 390.194 832.907C383.685 828.214 380.907 825.311 381.325 816.856C381.64 792.737 397.153 743.232 405.458 719.589C408.015 712.312 415.019 698.165 416.488 692.076C407.504 681.499 395.598 655.888 390.951 642.737C392.139 639.68 394.223 636.473 395.937 633.628C376.242 577.731 375.748 516.809 394.534 460.45C398.165 449.698 402.924 439.199 407.651 428.88C409.903 423.961 412.194 419.863 413.186 414.462L418.01 406.714C453.827 353.351 449.903 361.237 470.375 342.776Z" fill="#A7744F"/>
<path d="M685.649 276.974C686.142 276.618 686.646 276.278 687.162 275.954C695.349 270.838 702.155 275.762 699.819 285.771C691.926 291.34 683.078 287.78 685.649 276.974Z" fill="#8D5B3B"/>
<path d="M445.97 369.125C444.595 366.776 442.645 363.275 441.944 360.723C436.163 339.648 460.634 315.376 481.388 320.499C484.167 321.185 486.313 322.404 488.757 323.862L488.746 325.839C471.597 341.394 461.217 350.544 445.97 369.125Z" fill="#8D5B3B"/>
<path d="M416.292 409.612C419.757 403.812 434.392 382.141 437.435 378.173C430.609 387.913 423.998 411.024 423.485 422.422C421.57 464.885 435.261 511.111 457.248 547.254C448.735 549.837 431.299 574.513 423.969 581.866C417.372 588.483 414.599 593.175 419.678 601.443C411.799 609.608 403.381 626.003 396.443 633.843C376.373 577.284 375.597 515.738 394.236 458.89C397.839 448.045 402.579 437.46 407.286 427.057C409.53 422.099 409.362 421.211 411.095 418.312C412.827 415.412 416.292 409.612 416.292 409.612Z" fill="#A7744F"/>
<path d="M401.938 551.445C411.25 545.702 415.958 553.717 412.092 562.884C402.307 568.785 396.828 561.223 401.938 551.445Z" fill="#8D5B3B"/>
<path d="M427.035 393.051C430.057 386.789 432.944 383.336 437.434 378.173C436.084 384.674 434.076 390.924 432.637 397.47C422.185 445.002 435.622 494.81 457.471 537.571C458.512 539.61 459.819 542.205 461.053 544.094C461.589 544.931 462.266 545.666 463.053 546.269C462.411 547.368 461.932 548.129 461.405 549.302L456.811 548.766C434.795 512.592 420.987 466.386 422.714 424.003C423.177 412.626 425.62 403.985 427.035 393.051Z" fill="#8D5B3B"/>
<path d="M494.373 321.385C497.347 318.592 501.466 315.307 505.214 313.712L505.747 313.708C512.03 313.602 519.834 311.928 525.757 312.081C557.889 312.906 587.541 321.587 615.527 337.4C625.862 343.241 636.819 351.025 647.116 356.812C647.555 357.059 648.749 356.571 649.405 356.385C646.855 358.416 644.283 360.419 641.686 362.39C638.898 359.299 626.979 351.816 623.187 349.455C594.663 331.753 561.691 319.612 527.91 318.578C517.51 318.26 504.989 320.564 494.373 321.385Z" fill="#8D5B3B"/>
<path d="M650.706 356.124C684.857 327.95 726.136 300.308 764.197 277.496C766.714 276.35 769.205 275.146 771.666 273.885C779.08 275.628 785.058 278.978 792.194 281.419C802.495 287.511 813.543 292.793 822.154 301.317C806.812 311.929 789.718 325.201 774.704 336.522C711.017 384.559 650.425 436.555 593.296 492.2C572.749 512.394 552.605 532.991 532.874 553.978L511.341 577.598C509.485 579.644 503.163 586.859 501.415 588.269C494.684 579.346 468.779 554.386 459.836 547.914C460.377 546.743 460.866 545.981 461.521 544.883C493.626 507.807 522.866 473.431 558.001 438.726C586.843 410.238 612.116 388.184 642.843 362.231C645.488 360.226 648.108 358.19 650.706 356.124Z" fill="#693C26"/>
<path d="M381.316 816.843C382.121 816.487 383.579 815.782 383.957 815C398.882 784.185 417.12 758.201 437.857 730.903C461.205 700.406 485.741 670.834 511.408 642.253C603.154 538.791 704.733 444.449 814.71 360.563C845.072 337.311 876.611 315.634 909.2 295.617C914.606 292.215 920.134 289.008 925.772 286.004C931.928 282.733 954.887 272.543 957.961 268.141C971.58 266.864 974.143 268.15 980.583 280.622C982.66 295.341 958.42 331.91 948.667 343.862C935.157 336.572 907.682 325.983 893.023 320.98C886.608 324.101 867.214 337.868 860.974 342.543C852.973 348.538 836.312 359.829 829.103 366.289L812.196 379.1C782.918 401.738 754.269 425.174 726.277 449.381C714.393 459.596 700.591 472.738 688.744 482.328C684.665 486.108 680.174 490.445 676 494.026C656.483 512.997 636.487 531.136 617.102 550.387C559.816 606.603 505.958 666.196 455.82 728.845C452.658 732.817 435.415 753.737 435.038 757.23C440.796 776.352 445.619 790.562 453.205 809.109C440.117 817.33 426.705 825.775 412.297 831.541C404.026 834.85 398.315 836.348 390.191 832.901C383.68 828.205 380.9 825.3 381.316 816.843Z" fill="#8D5B3B"/>
<path d="M892.286 321.273C908.924 308.894 959.023 277.255 978.888 280.238C979.612 280.349 980.332 280.478 981.05 280.628C983.288 295.738 958.93 333.034 949.106 345.208C935.296 337.618 907.247 326.527 892.286 321.273Z" fill="#693C26"/>
<path d="M419.204 602.162C414.312 594.184 417.176 589.539 423.892 582.932C431.356 575.589 449.259 551.098 457.801 548.394L462.394 548.803C471.237 555.05 496.76 579.269 503.355 587.964C503.871 593.987 502.236 596.586 497.999 601.222C487.382 612.839 477.531 625.808 465.647 636.15C463.839 637.716 461.159 638.051 458.902 638.13C453.082 636.185 425.507 608.269 419.204 602.162Z" fill="#DCA94F"/>
<path d="M455.937 563.555C460.824 560.952 466.587 568.715 469.99 572.151C467.477 575.469 457.209 585.6 458.055 589.734C460.799 603.149 474.418 583.207 477.455 579.577C490.281 593.558 491.636 591.378 478.737 606.299C475.358 609.811 465.748 623.612 461.972 623.852C456.07 621.009 435.144 600.141 432.357 594.566C432.518 588.478 451.09 568.608 455.937 563.555Z" fill="#693C26"/>
<path d="M396.034 633.639C403.084 625.745 411.69 609.282 419.69 601.055C426.144 607.391 454.393 636.336 460.301 638.406C447.294 656.386 430.384 674.886 416.67 692.623C407.601 681.966 395.619 656.13 390.952 642.858C392.166 639.765 394.288 636.519 396.034 633.639Z" fill="#693C26"/>
<path d="M704.812 459.686C707.838 460.386 716.79 463.238 716.754 469.085C716.722 475.265 709.761 476.35 706.455 477.029C669.031 484.894 649.988 489.473 619.622 523.052C605.899 538.238 587.944 541.059 574.839 526.904C563.897 515.075 566.192 497.643 579.953 484.712C595.552 470.045 614.459 462.284 634.462 457.213C671.391 447.85 702.44 459.135 704.788 459.692L704.812 459.686Z" fill="#FFAEB0"/>
<path d="M877.263 388.974C878.867 391.642 884.604 400.064 880.366 404.083C875.903 408.338 868.855 403.812 865.883 402.172C834.381 384.826 814.229 372.034 774.957 366.772C757.671 364.441 735.378 353.201 740.884 330.072C744.836 313.418 762.575 306.561 778.449 310.163C795.511 313.681 814.378 325.527 828.647 336.028C858.073 357.714 876.056 386.878 877.288 388.968L877.263 388.974Z" fill="#FFAEB0"/>
<defs>
<linearGradient id="paint0_linear_846_518" x1="962.39" y1="1101.74" x2="279.287" y2="1233.45" gradientUnits="userSpaceOnUse">
<stop offset="0.2" stop-color="#FFE194"/>
<stop offset="1" stop-color="#FFFEB5" stop-opacity="0"/>
</linearGradient>
<linearGradient id="paint1_linear_846_518" x1="746.031" y1="607.257" x2="561.378" y2="934.302" gradientUnits="userSpaceOnUse">
<stop stop-color="#FF5C8F"/>
<stop offset="0.38" stop-color="#FF5E8F"/>
<stop offset="0.54" stop-color="#FF6590"/>
<stop offset="0.65" stop-color="#FF7192"/>
<stop offset="0.75" stop-color="#FF8395"/>
<stop offset="0.84" stop-color="#FF9A99"/>
<stop offset="0.92" stop-color="#FFB69E"/>
<stop offset="0.99" stop-color="#FFD7A3"/>
<stop offset="1" stop-color="#FFE0A5"/>
</linearGradient>
<linearGradient id="paint2_linear_846_518" x1="1192.68" y1="811.67" x2="1190.86" y2="818.054" gradientUnits="userSpaceOnUse">
<stop stop-color="#EDDFD5"/>
<stop offset="1" stop-color="#F2D8B7"/>
</linearGradient>
</defs>
</svg>
